<svg width="1920" height="534" viewBox="0 0 1920 534" fill="none" xmlns="http://www.w3.org/2000/svg">
<g clip-path="url(#clip0_9_30)">
<path d="M1920 0H0V534H1920V0Z" fill="#1A1C1F"/>
<path d="M0 265.22L53.3333 253.205C106.667 241.19 213.333 217.16 320 229.353C426.667 241.457 533.333 289.873 640 293.7C746.667 297.527 853.333 256.943 960 256.32C1066.67 255.697 1173.33 295.213 1280 305.715C1386.67 316.217 1493.33 297.883 1600 293.7C1706.67 289.517 1813.33 299.663 1866.67 304.647L1920 309.72V534.89H1866.67C1813.33 534.89 1706.67 534.89 1600 534.89C1493.33 534.89 1386.67 534.89 1280 534.89C1173.33 534.89 1066.67 534.89 960 534.89C853.333 534.89 746.667 534.89 640 534.89C533.333 534.89 426.667 534.89 320 534.89C213.333 534.89 106.667 534.89 53.3333 534.89H0V265.22Z" fill="#1F2226"/>
<path d="M0 370.24L53.3333 350.927C106.667 331.703 213.333 293.077 320 293.255C426.667 293.433 533.333 332.237 640 338.378C746.667 344.43 853.333 317.73 960 304.113C1066.67 290.407 1173.33 289.873 1280 299.752C1386.67 309.72 1493.33 330.19 1600 334.017C1706.67 337.933 1813.33 325.117 1866.67 318.798L1920 312.39V534.89H1866.67C1813.33 534.89 1706.67 534.89 1600 534.89C1493.33 534.89 1386.67 534.89 1280 534.89C1173.33 534.89 1066.67 534.89 960 534.89C853.333 534.89 746.667 534.89 640 534.89C533.333 534.89 426.667 534.89 320 534.89C213.333 534.89 106.667 534.89 53.3333 534.89H0V370.24Z" fill="#2E3338"/>
<path d="M0 371.13L53.3333 373.177C106.667 375.313 213.333 379.407 320 368.015C426.667 356.623 533.333 329.567 640 318.442C746.667 307.317 853.333 312.123 960 328.677C1066.67 345.32 1173.33 373.8 1280 383.145C1386.67 392.49 1493.33 382.7 1600 367.748C1706.67 352.707 1813.33 332.593 1866.67 322.447L1920 312.39V534.89H1866.67C1813.33 534.89 1706.67 534.89 1600 534.89C1493.33 534.89 1386.67 534.89 1280 534.89C1173.33 534.89 1066.67 534.89 960 534.89C853.333 534.89 746.667 534.89 640 534.89C533.333 534.89 426.667 534.89 320 534.89C213.333 534.89 106.667 534.89 53.3333 534.89H0V371.13Z" fill="#34393D"/>
<path d="M0 379.14L53.3333 382.522C106.667 385.993 213.333 392.757 320 399.61C426.667 406.463 533.333 413.227 640 416.253C746.667 419.19 853.333 418.3 960 420.703C1066.67 423.017 1173.33 428.713 1280 419.368C1386.67 410.023 1493.33 385.637 1600 380.297C1706.67 374.957 1813.33 388.663 1866.67 395.427L1920 402.28V534.89H1866.67C1813.33 534.89 1706.67 534.89 1600 534.89C1493.33 534.89 1386.67 534.89 1280 534.89C1173.33 534.89 1066.67 534.89 960 534.89C853.333 534.89 746.667 534.89 640 534.89C533.333 534.89 426.667 534.89 320 534.89C213.333 534.89 106.667 534.89 53.3333 534.89H0V379.14Z" fill="#3F454A"/>
<path d="M0 418.3L53.3333 421.86C106.667 425.42 196.333 449.45 303 452.298C409.667 455.057 533.333 436.723 640 441.44C746.667 446.157 853.333 457.193 960 459.507C1066.67 461.91 1173.33 455.68 1280 454.345C1386.67 453.01 1493.33 456.57 1600 452.298C1706.67 447.937 1813.33 435.833 1866.67 429.692L1920 423.64V534.89H1866.67C1813.33 534.89 1706.67 534.89 1600 534.89C1493.33 534.89 1386.67 534.89 1280 534.89C1173.33 534.89 1066.67 534.89 960 534.89C853.333 534.89 746.667 534.89 640 534.89C533.333 534.89 426.667 534.89 320 534.89C213.333 534.89 106.667 534.89 53.3333 534.89H0V418.3Z" fill="#F8F9FA"/>
</g>
<defs>
<clipPath id="clip0_9_30">
<rect width="1920" height="534" fill="white"/>
</clipPath>
</defs>
</svg>
